<svg width="42" height="30" viewBox="0 0 42 30" fill="none" xmlns="http://www.w3.org/2000/svg">
<path d="M37.0662 0.0366211H4.29723C1.94798 0.0366211 0.0366516 1.94795 0.0366516 4.2972V25.7028C0.0366516 28.052 1.94798 29.9633 4.29723 29.9633H37.0662C39.4155 29.9633 41.3267 28.052 41.3267 25.7028V4.2972C41.3267 1.94795 39.4153 0.0366211 37.0662 0.0366211ZM35.6617 3.176L21.6571 14.2856C21.0828 14.7413 20.2805 14.7413 19.7061 14.2856L5.70174 3.176H35.6617ZM38.1873 25.7028C38.1873 26.322 37.6853 26.824 37.0661 26.824H4.29723C3.678 26.824 3.17603 26.322 3.17603 25.7028V5.17965L17.7551 16.7451C18.5841 17.4028 19.6235 17.7649 20.6818 17.7649C21.74 17.7649 22.7794 17.4028 23.6084 16.7451L38.1874 5.17965V25.7028H38.1873Z" fill="#8D0606"/>
<path d="M37.0662 30H4.29722C1.92774 30 0 28.0723 0 25.7029V4.29722C0 1.92774 1.92774 0 4.29722 0H37.0662C39.4356 0 41.3634 1.92774 41.3634 4.29722V25.7029C41.3633 28.0723 39.4356 30 37.0662 30ZM4.29722 0.0732814C1.96812 0.0732814 0.0732814 1.96819 0.0732814 4.29722V25.7029C0.0732814 28.0319 1.96812 29.9267 4.29722 29.9267H37.0662C39.3952 29.9267 41.2901 28.032 41.2901 25.7029V4.29722C41.2901 1.96812 39.3953 0.0732814 37.0662 0.0732814H4.29722ZM37.0662 26.8606H4.29722C3.65879 26.8606 3.13937 26.3413 3.13937 25.7029V5.10383L17.7778 16.7164C18.6004 17.3689 19.6316 17.7282 20.6817 17.7282C21.7317 17.7282 22.763 17.3689 23.5855 16.7164L38.2239 5.10383V25.7029C38.2239 26.3413 37.7046 26.8606 37.0662 26.8606ZM3.21266 5.25552V25.7029C3.21266 26.3009 3.69917 26.7874 4.29722 26.7874H37.0662C37.6641 26.7874 38.1507 26.3009 38.1507 25.7029V5.25552L23.6311 16.7738C22.7957 17.4366 21.7482 17.8015 20.6817 17.8015C19.6152 17.8015 18.5677 17.4366 17.7323 16.7738L3.21266 5.25552ZM20.6816 14.664C20.3221 14.664 19.9676 14.5398 19.6833 14.3143L5.59657 3.13937H35.7667L21.6799 14.3143C21.3957 14.5398 21.0411 14.664 20.6816 14.664ZM5.80682 3.21266L19.7288 14.2569C20.0002 14.4722 20.3385 14.5907 20.6815 14.5907C21.0246 14.5907 21.3629 14.4721 21.6343 14.2569L35.5563 3.21266H5.80682Z" fill="#8D0606"/>
</svg>
