<svg width="31" height="30" viewBox="0 0 31 30" fill="none" xmlns="http://www.w3.org/2000/svg">
<g clip-path="url(#clip0_70047_445)">
<path fill-rule="evenodd" clip-rule="evenodd" d="M25.1853 6.99305C25.1853 7.98727 24.3793 8.79305 23.3853 8.79305C22.3913 8.79305 21.5853 7.98727 21.5853 6.99305C21.5853 5.99883 22.3913 5.19305 23.3853 5.19305C24.3795 5.19305 25.1853 5.99883 25.1853 6.99305ZM15.3784 19.9999C12.617 19.9999 10.3784 17.7614 10.3784 15C10.3784 12.2386 12.617 10.0001 15.3784 10.0001C18.1398 10.0001 20.3783 12.2386 20.3783 15C20.3783 17.7614 18.1398 19.9999 15.3784 19.9999ZM15.3784 7.29727C11.1242 7.29727 7.67562 10.7459 7.67562 15C7.67562 19.2541 11.1242 22.7027 15.3784 22.7027C19.6325 22.7027 23.0811 19.2541 23.0811 15C23.0811 10.7459 19.6325 7.29727 15.3784 7.29727ZM15.3784 2.70281C19.3836 2.70281 19.858 2.71805 21.4395 2.79023C22.902 2.85703 23.6963 3.10125 24.2248 3.3068C24.9249 3.57891 25.4246 3.90398 25.9496 4.42898C26.4746 4.95375 26.7997 5.45344 27.0718 6.15375C27.2771 6.68227 27.5216 7.47656 27.5884 8.93906C27.6605 10.5209 27.6758 10.9952 27.6758 15.0005C27.6758 19.0057 27.6605 19.4801 27.5884 21.0616C27.5216 22.5241 27.2773 23.3184 27.0718 23.847C26.7997 24.547 26.4746 25.0467 25.9496 25.5717C25.4248 26.0967 24.9252 26.4218 24.2248 26.6939C23.6963 26.8992 22.902 27.1437 21.4395 27.2105C19.858 27.2827 19.3836 27.2979 15.3784 27.2979C11.3729 27.2979 10.8985 27.2827 9.31695 27.2105C7.85445 27.1437 7.06015 26.8995 6.53164 26.6939C5.83156 26.4218 5.33187 26.0967 4.80687 25.5717C4.28211 25.047 3.95679 24.5473 3.68468 23.847C3.47937 23.3184 3.23492 22.5241 3.16812 21.0616C3.09593 19.4798 3.0807 19.0055 3.0807 15.0005C3.0807 10.9952 3.09593 10.5209 3.16812 8.93906C3.23492 7.47656 3.47914 6.68227 3.68468 6.15375C3.95679 5.45367 4.28187 4.95398 4.80687 4.42898C5.33164 3.90398 5.83133 3.57891 6.53164 3.3068C7.06015 3.10148 7.85445 2.85703 9.31695 2.79023C10.8987 2.71805 11.3731 2.70281 15.3784 2.70281ZM15.3784 0C11.3047 0 10.7937 0.0173438 9.1939 0.0902344C7.59734 0.163125 6.50679 0.416719 5.55289 0.7875C4.5664 1.1707 3.72992 1.68375 2.89601 2.51766C2.06211 3.35156 1.54906 4.18805 1.16586 5.17453C0.795076 6.12867 0.541482 7.21898 0.468591 8.81555C0.395701 10.4154 0.378357 10.9263 0.378357 15C0.378357 19.0737 0.395701 19.5846 0.468591 21.1845C0.541482 22.781 0.795076 23.8713 1.16586 24.8255C1.54906 25.812 2.06211 26.6484 2.89601 27.4823C3.72992 28.3162 4.5664 28.8291 5.55289 29.2125C6.50703 29.5833 7.59734 29.8369 9.1939 29.9098C10.7937 29.9827 11.3047 30 15.3784 30C19.452 30 19.963 29.9827 21.5628 29.9098C23.1594 29.8369 24.2497 29.5833 25.2038 29.2125C26.1903 28.8291 27.0268 28.3162 27.8607 27.4823C28.6946 26.6484 29.2074 25.812 29.5909 24.8255C29.9616 23.8713 30.2152 22.781 30.2881 21.1845C30.361 19.5846 30.3784 19.0737 30.3784 15C30.3784 10.9263 30.361 10.4154 30.2881 8.81555C30.2152 7.21898 29.9616 6.12867 29.5909 5.17453C29.2074 4.18805 28.6946 3.35156 27.8607 2.51766C27.0268 1.68375 26.1903 1.17094 25.2038 0.7875C24.2497 0.416719 23.1594 0.163125 21.5628 0.0902344C19.963 0.0173438 19.452 0 15.3784 0Z" fill="#8D0606"/>
</g>
<defs>
<clipPath id="clip0_70047_445">
<rect width="30" height="30" fill="white" transform="translate(0.378357)"/>
</clipPath>
</defs>
</svg>
