<svg width="31" height="30" viewBox="0 0 31 30" fill="none" xmlns="http://www.w3.org/2000/svg">
<g clip-path="url(#clip0_70047_443)">
<path d="M30.2703 14.6137C30.2703 22.6847 23.6773 29.2273 15.5429 29.2273C12.9606 29.2273 10.5346 28.5673 8.42393 27.409L0.270264 30L2.9286 22.1593C1.5876 19.9573 0.815264 17.3747 0.815264 14.6137C0.815264 6.54267 7.40893 0 15.5429 0C23.6779 0 30.2703 6.54267 30.2703 14.6137ZM15.5429 2.32733C8.71493 2.32733 3.16093 7.839 3.16093 14.6137C3.16093 17.302 4.03726 19.7917 5.5196 21.817L3.9726 26.38L8.73093 24.8677C10.6859 26.1513 13.0279 26.9 15.5433 26.9C22.3703 26.9 27.9253 21.389 27.9253 14.6143C27.9253 7.83967 22.3706 2.32733 15.5429 2.32733ZM22.9799 17.9793C22.8889 17.8303 22.6486 17.7403 22.2879 17.5613C21.9266 17.3823 20.1513 16.5153 19.8213 16.3963C19.4903 16.277 19.2489 16.217 19.0086 16.5753C18.7683 16.934 18.0763 17.7403 17.8653 17.9793C17.6546 18.219 17.4443 18.249 17.0829 18.0697C16.7223 17.8907 15.5593 17.512 14.1803 16.292C13.1073 15.3427 12.3826 14.1707 12.1719 13.8117C11.9616 13.4533 12.1499 13.2597 12.3303 13.0813C12.4929 12.9207 12.6916 12.663 12.8719 12.454C13.0529 12.2447 13.1129 12.0957 13.2326 11.8563C13.3536 11.6173 13.2933 11.4083 13.2026 11.2287C13.1126 11.0497 12.3899 9.287 12.0893 8.56967C11.7886 7.853 11.4883 7.97233 11.2773 7.97233C11.0669 7.97233 10.8259 7.94233 10.5853 7.94233C10.3446 7.94233 9.95326 8.032 9.62226 8.39033C9.2916 8.749 8.35926 9.61567 8.35926 11.378C8.35926 13.1407 9.65226 14.8437 9.83326 15.0823C10.0136 15.321 12.3299 19.0557 15.9999 20.49C19.6703 21.9237 19.6703 21.4453 20.3323 21.3853C20.9936 21.3257 22.4676 20.519 22.7696 19.683C23.0696 18.8457 23.0696 18.1287 22.9799 17.9793Z" fill="#8D0606"/>
</g>
<defs>
<clipPath id="clip0_70047_443">
<rect width="30" height="30" fill="white" transform="translate(0.270264)"/>
</clipPath>
</defs>
</svg>
